<svg id="visual" viewBox="0 0 900 300" width="300" height="100" xmlns="http://www.w3.org/2000/svg" xmlns:xlink="http://www.w3.org/1999/xlink" version="1.1"><path d="M0 409L56 409L56 409L113 409L113 409L169 409L169 409L225 409L225 409L281 409L281 409L338 409L338 409L394 409L394 409L450 409L450 409L506 409L506 409L563 409L563 409L619 409L619 409L675 409L675 409L731 409L731 409L788 409L788 409L844 409L844 409L900 409L900 409L900 601L900 601L844 601L844 601L788 601L788 601L731 601L731 601L675 601L675 601L619 601L619 601L563 601L563 601L506 601L506 601L450 601L450 601L394 601L394 601L338 601L338 601L281 601L281 601L225 601L225 601L169 601L169 601L113 601L113 601L56 601L56 601L0 601Z" fill="#efebf2"></path><path d="M0 499L56 499L56 499L113 499L113 499L169 499L169 499L225 499L225 499L281 499L281 499L338 499L338 499L394 499L394 499L450 499L450 499L506 499L506 499L563 499L563 499L619 499L619 499L675 499L675 499L731 499L731 499L788 499L788 499L844 499L844 499L900 499L900 499L900 601L900 601L844 601L844 601L788 601L788 601L731 601L731 601L675 601L675 601L619 601L619 601L563 601L563 601L506 601L506 601L450 601L450 601L394 601L394 601L338 601L338 601L281 601L281 601L225 601L225 601L169 601L169 601L113 601L113 601L56 601L56 601L0 601Z" fill="#0c3675"></path></svg>
